<mxfile host="app.diagrams.net" modified="2022-01-26T08:04:49.769Z" agent="5.0 (Windows NT 10.0; Win64; x64) AppleWebKit/537.36 (KHTML, like Gecko) Chrome/97.0.4692.71 Safari/537.36 Edg/97.0.1072.62" etag="W6ypJAgrexuoWnaw2SFU" version="16.4.7" type="github">
  <diagram id="2Wd-jzU9dBFdNbqfC7qS" name="Page-1">
    <mxGraphModel dx="942" dy="614" grid="1" gridSize="10" guides="1" tooltips="1" connect="1" arrows="1" fold="1" page="1" pageScale="1" pageWidth="827" pageHeight="1169" math="0" shadow="0">
      <root>
        <mxCell id="0" />
        <mxCell id="1" parent="0" />
        <mxCell id="Q6nM3NHGPOzzycXuOeBE-3" value="" style="edgeStyle=orthogonalEdgeStyle;rounded=0;orthogonalLoop=1;jettySize=auto;html=1;" edge="1" parent="1" source="Q6nM3NHGPOzzycXuOeBE-1" target="Q6nM3NHGPOzzycXuOeBE-2">
          <mxGeometry relative="1" as="geometry" />
        </mxCell>
        <mxCell id="Q6nM3NHGPOzzycXuOeBE-1" value="begin" style="rounded=1;whiteSpace=wrap;html=1;" vertex="1" parent="1">
          <mxGeometry x="270" y="20" width="120" height="60" as="geometry" />
        </mxCell>
        <mxCell id="Q6nM3NHGPOzzycXuOeBE-5" value="" style="edgeStyle=orthogonalEdgeStyle;rounded=0;orthogonalLoop=1;jettySize=auto;html=1;" edge="1" parent="1" source="Q6nM3NHGPOzzycXuOeBE-2" target="Q6nM3NHGPOzzycXuOeBE-4">
          <mxGeometry relative="1" as="geometry" />
        </mxCell>
        <mxCell id="Q6nM3NHGPOzzycXuOeBE-2" value="Enter a" style="shape=parallelogram;perimeter=parallelogramPerimeter;whiteSpace=wrap;html=1;fixedSize=1;" vertex="1" parent="1">
          <mxGeometry x="270" y="120" width="120" height="60" as="geometry" />
        </mxCell>
        <mxCell id="Q6nM3NHGPOzzycXuOeBE-7" value="" style="edgeStyle=orthogonalEdgeStyle;rounded=0;orthogonalLoop=1;jettySize=auto;html=1;" edge="1" parent="1" source="Q6nM3NHGPOzzycXuOeBE-4" target="Q6nM3NHGPOzzycXuOeBE-6">
          <mxGeometry relative="1" as="geometry" />
        </mxCell>
        <mxCell id="Q6nM3NHGPOzzycXuOeBE-4" value="Enter b" style="shape=parallelogram;perimeter=parallelogramPerimeter;whiteSpace=wrap;html=1;fixedSize=1;" vertex="1" parent="1">
          <mxGeometry x="270" y="210" width="120" height="60" as="geometry" />
        </mxCell>
        <mxCell id="Q6nM3NHGPOzzycXuOeBE-9" value="" style="edgeStyle=orthogonalEdgeStyle;rounded=0;orthogonalLoop=1;jettySize=auto;html=1;" edge="1" parent="1" source="Q6nM3NHGPOzzycXuOeBE-6" target="Q6nM3NHGPOzzycXuOeBE-8">
          <mxGeometry relative="1" as="geometry" />
        </mxCell>
        <mxCell id="Q6nM3NHGPOzzycXuOeBE-6" value="a*b" style="shape=process;whiteSpace=wrap;html=1;backgroundOutline=1;" vertex="1" parent="1">
          <mxGeometry x="270" y="300" width="120" height="60" as="geometry" />
        </mxCell>
        <mxCell id="Q6nM3NHGPOzzycXuOeBE-11" value="" style="edgeStyle=orthogonalEdgeStyle;rounded=0;orthogonalLoop=1;jettySize=auto;html=1;" edge="1" parent="1" source="Q6nM3NHGPOzzycXuOeBE-8" target="Q6nM3NHGPOzzycXuOeBE-10">
          <mxGeometry relative="1" as="geometry" />
        </mxCell>
        <mxCell id="Q6nM3NHGPOzzycXuOeBE-8" value="output" style="shape=document;whiteSpace=wrap;html=1;boundedLbl=1;" vertex="1" parent="1">
          <mxGeometry x="270" y="380" width="120" height="80" as="geometry" />
        </mxCell>
        <mxCell id="Q6nM3NHGPOzzycXuOeBE-10" value="end." style="rounded=1;whiteSpace=wrap;html=1;" vertex="1" parent="1">
          <mxGeometry x="270" y="490" width="120" height="60" as="geometry" />
        </mxCell>
      </root>
    </mxGraphModel>
  </diagram>
</mxfile>
